#!OML:ASF X:\für Bonn\!DataBase\2005_08_11_Bastian_Final\c3d\Bastian.ASF
:FULLY-SPECIFIED
:DEGREES
116
root -1.57182 15.2555 2.1397 172.568 -6.6836 -173.355
lowerback 23.7949 -1.08561 2.46096
upperback 5.40351 -1.78701 1.38775
thorax -7.30332 -1.34969 0.690157
lowerneck -14.4518 -5.23463 -2.62322
upperneck -6.33635 -7.80367 11.4393
head 1.08181 -4.208 3.78201
rclavicle 1.94809e-014 -1.19271e-015
rhumerus 70.5582 16.4996 9.29085
rradius 38.3948
rwrist -63.5365
rhand -49.8749 -6.74801
rfingers 7.12502
rthumb -22.469 -35.4609
lclavicle 1.94809e-014 -1.19271e-015
lhumerus 75.1442 -18.0521 -35.3588
lradius 31.5524
lwrist 29.799
lhand -45.8252 23.4175
lfingers 7.12502
lthumb -18.5775 52.5504
rfemur -26.1741 -2.60032 28.0926
rtibia 72.6548
rfoot -32.5257 -8.85059
rtoes -5.02298
lfemur -26.6943 1.68778 -13.3868
ltibia 73.1683
lfoot -30.3449 -11.0749
ltoes 0.419475
117
root -1.57445 15.4469 2.13102 172.861 -6.69589 -173.469
lowerback 23.4417 -1.0952 2.29484
upperback 5.27197 -1.80767 1.34411
thorax -7.26544 -1.33904 0.732883
lowerneck -14.3772 -5.22436 -2.67545
upperneck -6.13704 -7.77011 11.4572
head 1.13714 -4.1736 3.79979
rclavicle 1.90833e-014 -1.90833e-014
rhumerus 70.6656 17.0224 9.11471
rradius 38.3696
rwrist -63.2746
rhand -49.8405 -6.93378
rfingers 7.12502
rthumb -22.436 -35.6507
lclavicle 1.90833e-014 -1.90833e-014
lhumerus 75.2736 -18.193 -35.2455
lradius 31.4492
lwrist 29.4314
lhand -45.502 22.9511
lfingers 7.12502
lthumb -18.2666 52.1135
rfemur -25.2142 -2.87482 27.8382
rtibia 70.2932
rfoot -31.6444 -8.21183
rtoes -4.91041
lfemur -25.6314 1.84547 -13.4866
ltibia 70.5146
lfoot -29.3845 -10.9875
ltoes -0.10139
118
root -1.57651 15.6309 2.12221 173.127 -6.68312 -173.607
lowerback 23.1099 -1.0884 2.10196
upperback 5.15522 -1.81709 1.29041
thorax -7.2209 -1.32433 0.777125
lowerneck -14.2706 -5.21182 -2.75767
upperneck -5.98103 -7.73135 11.5254
head 1.17635 -4.13988 3.84286
rclavicle 2.08724e-014 -3.49861e-014
rhumerus 70.758 17.5445 8.89862
rradius 38.3271
rwrist -62.9817
rhand -49.7596 -7.1145
rfingers 7.12502
rthumb -22.3584 -35.8407
lclavicle 2.08724e-014 -3.49861e-014
lhumerus 75.3704 -18.3421 -34.905
lradius 31.2579
lwrist 28.8111
lhand -45.1147 22.377
lfingers 7.12502
lthumb -17.894 51.5737
rfemur -24.2581 -3.17206 27.573
rtibia 67.9831
rfoot -30.7419 -7.6182
rtoes -4.83252
lfemur -24.5386 2.0203 -13.6064
ltibia 67.8904
lfoot -28.3581 -10.8957
ltoes -0.546386
119
root -1.57888 15.8056 2.11244 173.411 -6.68416 -173.719
lowerback 22.7455 -1.09233 1.91259
upperback 5.03867 -1.8379 1.25933
thorax -7.1576 -1.31517 0.846038
lowerneck -14.2225 -5.18095 -2.79004
upperneck -5.78807 -7.6764 11.5281
head 1.23062 -4.0964 3.85281
rclavicle 2.82274e-014 -1.43125e-014
rhumerus 70.8582 18.0408 8.62963
rradius 38.2843
rwrist -62.7043
rhand -49.6317 -7.21123
rfingers 7.12502
rthumb -22.2355 -35.9522
lclavicle 2.82274e-014 -1.43125e-014
lhumerus 75.4591 -18.5219 -34.6678
lradius 31.0937
lwrist 28.2164
lhand -44.7854 21.9069
lfingers 7.12502
lthumb -17.5771 51.1324
rfemur -23.3437 -3.47598 27.3411
rtibia 65.7303
rfoot -29.8704 -7.00455
rtoes -4.68469
lfemur -23.4982 2.18533 -13.7072
ltibia 65.321
lfoot -27.2095 -10.8347
ltoes -0.676431
120
root -1.58071 15.973 2.10075 173.663 -6.67454 -173.834
lowerback 22.3924 -1.09031 1.73788
upperback 4.9288 -1.84949 1.21274
thorax -7.09256 -1.3028 0.887342
lowerneck -14.157 -5.17056 -2.85572
upperneck -5.5796 -7.64482 11.5774
head 1.29319 -4.06282 3.88427
rclavicle -1.61016e-014 9.54166e-015
rhumerus 70.9329 18.5521 8.3456
rradius 38.2267
rwrist -62.3986
rhand -49.4688 -7.40762
rfingers 7.12502
rthumb -22.0792 -36.1671
lclavicle -1.61016e-014 9.54166e-015
lhumerus 75.5941 -18.7078 -34.5564
lradius 30.9669
lwrist 27.6748
lhand -44.4954 21.522
lfingers 7.12502
lthumb -17.2981 50.7722
rfemur -22.4158 -3.68812 27.1245
rtibia 63.5368
rfoot -29.0031 -6.48097
rtoes -4.42659
lfemur -22.424 2.31991 -13.8054
ltibia 62.7951
lfoot -26.0846 -10.785
ltoes -0.928962
121
root -1.58215 16.1307 2.08666 173.905 -6.65991 -173.972
lowerback 22.0099 -1.07618 1.53683
upperback 4.83661 -1.8538 1.16593
thorax -6.99135 -1.2877 0.939975
lowerneck -14.0907 -5.15851 -2.9148
upperneck -5.39928 -7.61209 11.6107
head 1.34477 -4.0311 3.90938
rclavicle -1.22253e-014 1.74931e-014
rhumerus 70.9905 19.0438 8.08222
rradius 38.1483
rwrist -62.1272
rhand -49.2921 -7.49374
rfingers 7.12502
rthumb -21.9095 -36.2732
lclavicle -1.22253e-014 1.74931e-014
lhumerus 75.7553 -18.8815 -34.5641
lradius 30.8852
lwrist 27.2852
lhand -44.2903 21.1595
lfingers 7.12502
lthumb -17.1006 50.4269
rfemur -21.5143 -3.89308 26.893
rtibia 61.419
rfoot -28.14 -5.99483
rtoes -4.17433
lfemur -21.3563 2.46448 -13.9365
ltibia 60.3357
lfoot -25.0277 -10.6715
ltoes -1.32293
122
root -1.58399 16.2801 2.07093 174.145 -6.64615 -174.063
lowerback 21.588 -1.07635 1.35835
upperback 4.75596 -1.87123 1.15175
thorax -6.8553 -1.28038 1.01702
lowerneck -14.0387 -5.13695 -2.97573
upperneck -5.21456 -7.56605 11.6195
head 1.39798 -3.99246 3.92691
rclavicle -1.00386e-014 1.94809e-014
rhumerus 71.0835 19.4952 7.79361
rradius 38.0555
rwrist -61.7929
rhand -49.1124 -7.56193
rfingers 7.12502
rthumb -21.737 -36.3615
lclavicle -1.00386e-014 1.94809e-014
lhumerus 75.9158 -19.0833 -34.7667
lradius 30.8333
lwrist 26.9963
lhand -44.1545 21.0015
lfingers 7.12502
lthumb -16.9699 50.2801
rfemur -20.6543 -4.13536 26.716
rtibia 59.3743
rfoot -27.2947 -5.51772
rtoes -3.9538
lfemur -20.3172 2.58244 -14.0129
ltibia 57.9491
lfoot -24.0191 -10.5738
ltoes -1.70917
